<svg height="26" width="26" xmlns="http://www.w3.org/2000/svg" xmlns:xlink="http://www.w3.org/1999/xlink"><linearGradient id="a" gradientUnits="userSpaceOnUse" x1="13.08" x2="13.08" y1=".5" y2="25.66"><stop offset="0" stop-color="#f452ff"/><stop offset="1" stop-color="#832bc1"/></linearGradient><path d="m25.16 22.31c-.24.62-.81 1.49-1.61 2.11-.46.36-1.01.7-1.77.92-.81.24-1.8.32-3.04.32h-11.32c-1.24 0-2.24-.08-3.04-.32-.76-.22-1.31-.56-1.78-.92-.8-.62-1.36-1.49-1.61-2.11-.49-1.25-.49-2.67-.49-3.57v-11.32c0-.9 0-2.32.49-3.57.25-.62.81-1.49 1.61-2.11.47-.36 1.02-.7 1.78-.92.8-.24 1.8-.32 3.04-.32h11.32c1.24 0 2.23.08 3.04.32.76.22 1.31.56 1.77.92.8.62 1.37 1.49 1.61 2.11.49 1.25.5 2.67.5 3.57v11.32c0 .9-.01 2.32-.5 3.57zm0 0" fill="url(#a)" fill-rule="evenodd"/><path d="m14.9 14.96c-.37-.4-1.04-.65-1.82-.65s-1.45.25-1.82.65c-.2.21-.31.42-.34.73-.06.58-.03 1.09.04 1.9.07.77.19 1.8.36 2.85.11.74.21 1.14.29 1.43.14.47.66.88 1.47.88s1.33-.41 1.47-.88c.08-.29.18-.69.29-1.43.17-1.05.29-2.08.36-2.85.07-.81.1-1.32.04-1.9-.04-.31-.14-.52-.34-.73zm-3.88-3.55c0 1.14.92 2.06 2.06 2.06s2.06-.92 2.06-2.06c0-1.13-.92-2.06-2.06-2.06s-2.06.93-2.06 2.06zm2.04-8.12c-4.82.01-8.77 3.92-8.83 8.73-.04 3.91 2.45 7.24 5.92 8.47.09.03.17-.04.16-.13-.05-.31-.09-.61-.13-.91-.01-.11-.08-.2-.18-.24-2.75-1.2-4.67-3.96-4.63-7.15.04-4.19 3.46-7.61 7.65-7.64 4.28-.03 7.78 3.44 7.78 7.72 0 3.16-1.91 5.88-4.64 7.07-.1.04-.16.14-.18.24-.04.3-.08.6-.13.91-.01.09.08.16.16.13 3.44-1.22 5.92-4.5 5.92-8.35 0-4.89-3.98-8.87-8.87-8.85zm-.16 4.06c2.73-.11 4.98 2.08 4.98 4.79 0 1.38-.58 2.62-1.51 3.49-.08.08-.13.18-.12.29.02.33.01.65-.01 1.01-.01.1.1.16.18.11 1.57-1.07 2.59-2.87 2.59-4.9 0-3.35-2.78-6.06-6.16-5.92-3.14.12-5.65 2.7-5.69 5.84-.03 2.07 1.01 3.89 2.59 4.98.08.05.19-.01.18-.11-.02-.36-.03-.68-.01-1.01.01-.11-.04-.21-.11-.29-.97-.9-1.56-2.19-1.52-3.62.07-2.51 2.09-4.57 4.61-4.66zm0 0" fill="#fff"/></svg>