<?xml version="1.0" encoding="UTF-8"?>
<!DOCTYPE svg PUBLIC "-//W3C//DTD SVG 1.1//EN" "http://www.w3.org/Graphics/SVG/1.1/DTD/svg11.dtd">
<svg version="1.1" xmlns="http://www.w3.org/2000/svg" xmlns:xlink="http://www.w3.org/1999/xlink" width="26" height="26"  xml:space="preserve" id="badgeapple">
    <!-- Generated by PaintCode - http://www.paintcodeapp.com -->
    <defs>
        <linearGradient id="badgeapple-a-bezier" x1="13.08" y1="0.5" x2="13.08" y2="25.66" gradientUnits="userSpaceOnUse" >
            <stop offset="0" stop-color="rgb(244, 82, 255)" stop-opacity="1" />
            <stop offset="1" stop-color="rgb(131, 43, 193)" stop-opacity="1" />
        </linearGradient>
    </defs>
    <g id="badgeapple-badgeapplesvgGroup">
        <path id="badgeapple-bezier" fill-rule="evenodd" stroke="none" fill="url(#badgeapple-a-bezier)" d="M 25.16,22.31 C 24.92,22.93 24.35,23.8 23.55,24.42 23.09,24.78 22.54,25.12 21.78,25.34 20.97,25.58 19.98,25.66 18.74,25.66 L 7.42,25.66 C 6.18,25.66 5.18,25.58 4.38,25.34 3.62,25.12 3.07,24.78 2.6,24.42 1.8,23.8 1.24,22.93 0.99,22.31 0.5,21.06 0.5,19.64 0.5,18.74 L 0.5,7.42 C 0.5,6.52 0.5,5.1 0.99,3.85 1.24,3.23 1.8,2.36 2.6,1.74 3.07,1.38 3.62,1.04 4.38,0.82 5.18,0.58 6.18,0.5 7.42,0.5 L 18.74,0.5 C 19.98,0.5 20.97,0.58 21.78,0.82 22.54,1.04 23.09,1.38 23.55,1.74 24.35,2.36 24.92,3.23 25.16,3.85 25.65,5.1 25.66,6.52 25.66,7.42 L 25.66,18.74 C 25.66,19.64 25.65,21.06 25.16,22.31 Z M 25.16,22.31" />
        <path id="badgeapple-bezier3" stroke="none" fill="rgb(255, 255, 255)" d="M 14.9,14.96 C 14.53,14.56 13.86,14.31 13.08,14.31 12.3,14.31 11.63,14.56 11.26,14.96 11.06,15.17 10.95,15.38 10.92,15.69 10.86,16.27 10.89,16.78 10.96,17.59 11.03,18.36 11.15,19.39 11.32,20.44 11.43,21.18 11.53,21.58 11.61,21.87 11.75,22.34 12.27,22.75 13.08,22.75 13.89,22.75 14.41,22.34 14.55,21.87 14.63,21.58 14.73,21.18 14.84,20.44 15.01,19.39 15.13,18.36 15.2,17.59 15.27,16.78 15.3,16.27 15.24,15.69 15.2,15.38 15.1,15.17 14.9,14.96 Z M 11.02,11.41 C 11.02,12.55 11.94,13.47 13.08,13.47 14.22,13.47 15.14,12.55 15.14,11.41 15.14,10.28 14.22,9.35 13.08,9.35 11.94,9.35 11.02,10.28 11.02,11.41 Z M 13.06,3.29 C 8.24,3.3 4.29,7.21 4.23,12.02 4.19,15.93 6.68,19.26 10.15,20.49 10.24,20.52 10.32,20.45 10.31,20.36 10.26,20.05 10.22,19.75 10.18,19.45 10.17,19.34 10.1,19.25 10,19.21 7.25,18.01 5.33,15.25 5.37,12.06 5.41,7.87 8.83,4.45 13.02,4.42 17.3,4.39 20.8,7.86 20.8,12.14 20.8,15.3 18.89,18.02 16.16,19.21 16.06,19.25 16,19.35 15.98,19.45 15.94,19.75 15.9,20.05 15.85,20.36 15.84,20.45 15.93,20.52 16.01,20.49 19.45,19.27 21.93,15.99 21.93,12.14 21.93,7.25 17.95,3.27 13.06,3.29 Z M 12.9,7.35 C 15.63,7.24 17.88,9.43 17.88,12.14 17.88,13.52 17.3,14.76 16.37,15.63 16.29,15.71 16.24,15.81 16.25,15.92 16.27,16.25 16.26,16.57 16.24,16.93 16.23,17.03 16.34,17.09 16.42,17.04 17.99,15.97 19.01,14.17 19.01,12.14 19.01,8.79 16.23,6.08 12.85,6.22 9.71,6.34 7.2,8.92 7.16,12.06 7.13,14.13 8.17,15.95 9.75,17.04 9.83,17.09 9.94,17.03 9.93,16.93 9.91,16.57 9.9,16.25 9.92,15.92 9.93,15.81 9.88,15.71 9.81,15.63 8.84,14.73 8.25,13.44 8.29,12.01 8.36,9.5 10.38,7.44 12.9,7.35 Z M 12.9,7.35" />
    </g>
</svg>
