<?xml version="1.0" encoding="UTF-8"?>
<!DOCTYPE svg PUBLIC "-//W3C//DTD SVG 1.1//EN" "http://www.w3.org/Graphics/SVG/1.1/DTD/svg11.dtd">
<svg version="1.1" xmlns="http://www.w3.org/2000/svg" xmlns:xlink="http://www.w3.org/1999/xlink" width="26" height="26"  xml:space="preserve" id="badgecastro">
    <!-- Generated by PaintCode - http://www.paintcodeapp.com -->
    <defs>
        <linearGradient id="badgecastro-a3-bezier" x1="0" y1="-0" x2="0" y2="26" gradientUnits="userSpaceOnUse" >
            <stop offset="0" stop-color="rgb(0, 204, 191)" stop-opacity="1" />
            <stop offset="1" stop-color="rgb(0, 178, 101)" stop-opacity="1" />
        </linearGradient>
        <linearGradient id="badgecastro-b2-oval" x1="2" y1="2" x2="2" y2="24" gradientUnits="userSpaceOnUse" >
            <stop offset="0" stop-color="rgb(21, 21, 21)" stop-opacity="1" />
            <stop offset="1" stop-color="rgb(53, 53, 53)" stop-opacity="1" />
        </linearGradient>
        <linearGradient id="badgecastro-c-bezier2" x1="4.95" y1="4.92" x2="4.95" y2="19.46" gradientUnits="userSpaceOnUse" >
            <stop offset="0.3" stop-color="rgb(255, 255, 255)" stop-opacity="1" />
            <stop offset="1" stop-color="rgb(156, 192, 183)" stop-opacity="1" />
        </linearGradient>
    </defs>
    <path id="badgecastro-bezier" fill-rule="evenodd" stroke="none" fill="url(#badgecastro-a3-bezier)" d="M 9.21,0.5 L 16.78,0.5 C 19.29,0.5 20.55,0.5 21.89,0.92 23.38,1.46 24.53,2.62 25.07,4.1 25.5,5.45 25.5,6.7 25.5,9.21 L 25.5,16.78 C 25.5,19.29 25.5,20.55 25.07,21.89 24.53,23.38 23.37,24.53 21.89,25.07 20.55,25.5 19.29,25.5 16.78,25.5 L 9.21,25.5 C 6.7,25.5 5.45,25.5 4.1,25.07 2.62,24.53 1.46,23.38 0.92,21.89 0.5,20.55 0.5,19.29 0.5,16.78 L 0.5,9.21 C 0.5,6.7 0.5,5.45 0.92,4.1 1.46,2.62 2.62,1.46 4.1,0.92 5.45,0.5 6.7,0.5 9.21,0.5 Z M 9.21,0.5" />
    <circle id="badgecastro-oval" stroke="none" fill="url(#badgecastro-b2-oval)" cx="13" cy="13" r="11" />
    <path id="badgecastro-bezier2" fill-rule="evenodd" stroke="none" fill="url(#badgecastro-c-bezier2)" d="M 17.72,19.44 L 15.82,16.82 C 17.01,15.94 17.79,14.54 17.79,12.95 17.79,10.31 15.64,8.16 12.99,8.16 10.35,8.16 8.2,10.31 8.2,12.95 8.2,14.54 8.98,15.96 10.18,16.83 L 8.28,19.46 C 6.27,18 4.95,15.63 4.95,12.95 4.95,8.51 8.55,4.92 12.99,4.92 17.43,4.92 21.03,8.51 21.03,12.95 21.03,15.62 19.72,17.98 17.72,19.44 Z M 13.01,11.01 C 14.08,11.01 14.94,11.88 14.94,12.94 14.94,14.01 14.08,14.87 13.01,14.87 11.94,14.87 11.08,14.01 11.08,12.94 11.08,11.88 11.94,11.01 13.01,11.01 Z M 13.01,11.01" />
</svg>
