<svg height="26" width="26" xmlns="http://www.w3.org/2000/svg" xmlns:xlink="http://www.w3.org/1999/xlink"><linearGradient id="a" gradientUnits="userSpaceOnUse" x1="13" x2="13" y1="-.08" y2="26.08"><stop offset="0" stop-color="#f93"/><stop offset="1" stop-color="#ff7833"/></linearGradient><linearGradient id="b" gradientUnits="userSpaceOnUse" x1="13" x2="13" y1="23.5" y2="2.5"><stop offset="0" stop-color="#292e33"/><stop offset="1" stop-color="#434e59"/></linearGradient><path d="m25.01 22.17c-.25.62-.81 1.49-1.6 2.1-.46.35-1.01.69-1.76.91-.8.24-1.79.32-3.02.32h-11.26c-1.22 0-2.22-.08-3.02-.32-.75-.22-1.3-.56-1.76-.91-.79-.61-1.35-1.48-1.59-2.1-.49-1.25-.5-2.65-.5-3.54v-11.26c0-.89.01-2.29.5-3.53.24-.63.8-1.5 1.59-2.11.46-.35 1.01-.69 1.76-.91.8-.24 1.8-.32 3.02-.32h11.26c1.23 0 2.22.08 3.02.32.75.22 1.3.56 1.76.91.79.61 1.35 1.48 1.6 2.11.49 1.24.49 2.64.49 3.53v11.26c0 .89 0 2.29-.49 3.54zm0 0" fill="url(#a)" fill-rule="evenodd"/><circle cx="13" cy="13" fill="#fff" r="9.5"/><g fill-rule="evenodd"><path d="m13 23.5c-5.8 0-10.5-4.7-10.5-10.5s4.7-10.5 10.5-10.5 10.5 4.7 10.5 10.5-4.7 10.5-10.5 10.5zm0-4.13.81-.81-.81-3.02-.81 3.02zm-1-.08-.4 1.47.94-.93zm2 0-.53.54.93.93zm.73 2.73-1.73-1.73-1.73 1.73h.01c1.14.22 2.3.22 3.43 0zm-1.73-18.2v-.01c-5.08 0-9.18 4.11-9.18 9.19 0 3.91 2.48 7.4 6.18 8.68l1.95-7.29c-.77-.58-.93-1.68-.34-2.45.58-.77 1.67-.93 2.44-.34.77.58.93 1.68.34 2.45-.09.12-.21.24-.34.34l1.96 7.29h-.01c4.79-1.65 7.34-6.88 5.69-11.68-1.28-3.7-4.77-6.19-8.69-6.19zm0 0" fill="url(#b)"/><path d="m19 17.55-.01.01c-.22.28-.62.33-.91.12h.01c-.28-.19-.35-.58-.16-.85.01-.01.01-.01.02-.02l.03-.05c1.56-2.31 1.53-5.33-.06-7.63l.03.06c-.21-.27-.16-.65.11-.85.01-.01.02-.02.03-.02v-.01c.29-.2.69-.14.91.14 1.91 2.73 1.91 6.37 0 9.1zm-3.19-1.72h-.01c-.24-.29-.23-.72.04-1 .88-1.06.88-2.6 0-3.66-.27-.28-.28-.71-.04-1.01h.01c.22-.26.61-.29.87-.07.02.01.04.03.05.05l.03.02c1.43 1.65 1.41 4.11-.06 5.73l.03-.03c-.24.25-.64.26-.89.02 0-.02-.02-.04-.03-.05zm-5.62 0c-.22.26-.61.3-.87.08-.02-.02-.04-.03-.05-.05l-.03-.03c-1.43-1.64-1.41-4.1.06-5.73l-.03.04c.24-.25.64-.26.89-.02 0 .02.02.03.03.04h.01c.24.3.23.73-.04 1.01-.88 1.06-.88 2.6 0 3.66.27.28.28.71.04 1zm-2.28 1.86c-.29.2-.69.14-.91-.14-1.91-2.73-1.91-6.37 0-9.1l.01-.01c.21-.28.62-.33.91-.12h-.01c.28.19.35.58.15.85 0 .01 0 .01-.01.02l-.03.05c-1.56 2.31-1.53 5.33.06 7.63l-.03-.06c.21.27.16.65-.11.85-.01.01-.02.02-.03.02zm0 0" fill="#f93"/></g></svg>