<svg height="26" width="26" xmlns="http://www.w3.org/2000/svg"><g fill-rule="evenodd"><path d="m9.21.5h7.57c2.51 0 3.77 0 5.11.42 1.49.54 2.64 1.7 3.18 3.18.43 1.35.43 2.6.43 5.11v7.57c0 2.51 0 3.77-.43 5.11-.54 1.49-1.7 2.64-3.18 3.18-1.34.43-2.6.43-5.11.43h-7.57c-2.51 0-3.76 0-5.11-.43-1.48-.54-2.64-1.69-3.18-3.18-.42-1.34-.42-2.6-.42-5.11v-7.57c0-2.51 0-3.76.42-5.11.54-1.48 1.7-2.64 3.18-3.18 1.35-.42 2.6-.42 5.11-.42zm0 0" fill="#f43e37"/><path d="m2.89 12.89c0-5.52 4.48-10 10-10s10 4.48 10 10h-2.5c0-4.14-3.36-7.5-7.5-7.5s-7.5 3.36-7.5 7.5 3.36 7.5 7.5 7.5v2.5c-5.52 0-10-4.48-10-10zm10 6c-3.31 0-6-2.69-6-6s2.69-6 6-6 6 2.69 6 6h-2.18c0-2.11-1.71-3.82-3.82-3.82s-3.82 1.71-3.82 3.82 1.71 3.82 3.82 3.82zm0 0" fill="#fff"/></g></svg>