<?xml version="1.0" encoding="UTF-8"?>
<!DOCTYPE svg PUBLIC "-//W3C//DTD SVG 1.1//EN" "http://www.w3.org/Graphics/SVG/1.1/DTD/svg11.dtd">
<svg version="1.1" xmlns="http://www.w3.org/2000/svg" xmlns:xlink="http://www.w3.org/1999/xlink" width="26" height="26"  xml:space="preserve" id="badgepocketcasts">
    <!-- Generated by PaintCode - http://www.paintcodeapp.com -->
    <path id="badgepocketcasts-bezier" fill-rule="evenodd" stroke="none" fill="rgb(244, 62, 55)" d="M 9.21,0.5 L 16.78,0.5 C 19.29,0.5 20.55,0.5 21.89,0.92 23.38,1.46 24.53,2.62 25.07,4.1 25.5,5.45 25.5,6.7 25.5,9.21 L 25.5,16.78 C 25.5,19.29 25.5,20.55 25.07,21.89 24.53,23.38 23.37,24.53 21.89,25.07 20.55,25.5 19.29,25.5 16.78,25.5 L 9.21,25.5 C 6.7,25.5 5.45,25.5 4.1,25.07 2.62,24.53 1.46,23.38 0.92,21.89 0.5,20.55 0.5,19.29 0.5,16.78 L 0.5,9.21 C 0.5,6.7 0.5,5.45 0.92,4.1 1.46,2.62 2.62,1.46 4.1,0.92 5.45,0.5 6.7,0.5 9.21,0.5 Z M 9.21,0.5" />
    <path id="badgepocketcasts-bezier2" fill-rule="evenodd" stroke="none" fill="rgb(255, 255, 255)" d="M 2.89,12.89 C 2.89,7.37 7.37,2.89 12.89,2.89 18.41,2.89 22.89,7.37 22.89,12.89 L 20.39,12.89 C 20.39,8.75 17.03,5.39 12.89,5.39 8.75,5.39 5.39,8.75 5.39,12.89 5.39,17.03 8.75,20.39 12.89,20.39 L 12.89,22.89 C 7.37,22.89 2.89,18.41 2.89,12.89 Z M 12.89,18.89 C 9.58,18.89 6.89,16.2 6.89,12.89 6.89,9.58 9.58,6.89 12.89,6.89 16.2,6.89 18.89,9.58 18.89,12.89 L 16.71,12.89 C 16.71,10.78 15,9.07 12.89,9.07 10.78,9.07 9.07,10.78 9.07,12.89 9.07,15 10.78,16.71 12.89,16.71 L 12.89,18.89 Z M 12.89,18.89" />
</svg>
