<?xml version="1.0" encoding="UTF-8"?>
<!DOCTYPE svg PUBLIC "-//W3C//DTD SVG 1.1//EN" "http://www.w3.org/Graphics/SVG/1.1/DTD/svg11.dtd">
<svg version="1.1" xmlns="http://www.w3.org/2000/svg" xmlns:xlink="http://www.w3.org/1999/xlink" width="26" height="26"  xml:space="preserve" id="badgerss">
    <!-- Generated by PaintCode - http://www.paintcodeapp.com -->
    <defs>
        <linearGradient id="badgerss-a4-bezier" x1="13" y1="-0.08" x2="13" y2="26.08" gradientUnits="userSpaceOnUse" >
            <stop offset="0" stop-color="rgb(255, 153, 51)" stop-opacity="1" />
            <stop offset="1" stop-color="rgb(255, 120, 51)" stop-opacity="1" />
        </linearGradient>
    </defs>
    <path id="badgerss-bezier" fill-rule="evenodd" stroke="none" fill="url(#badgerss-a4-bezier)" d="M 25.01,22.17 C 24.76,22.79 24.2,23.66 23.41,24.27 22.95,24.62 22.4,24.96 21.65,25.18 20.85,25.42 19.86,25.5 18.63,25.5 L 7.37,25.5 C 6.15,25.5 5.15,25.42 4.35,25.18 3.6,24.96 3.05,24.62 2.59,24.27 1.8,23.66 1.24,22.79 1,22.17 0.51,20.92 0.5,19.52 0.5,18.63 L 0.5,7.37 C 0.5,6.48 0.51,5.08 1,3.84 1.24,3.21 1.8,2.34 2.59,1.73 3.05,1.38 3.6,1.04 4.35,0.82 5.15,0.58 6.15,0.5 7.37,0.5 L 18.63,0.5 C 19.86,0.5 20.85,0.58 21.65,0.82 22.4,1.04 22.95,1.38 23.41,1.73 24.2,2.34 24.76,3.21 25.01,3.84 25.5,5.08 25.5,6.48 25.5,7.37 L 25.5,18.63 C 25.5,19.52 25.5,20.92 25.01,22.17 Z M 25.01,22.17" />
    <path id="badgerss-bezier3" stroke="none" fill="rgb(255, 255, 255)" d="M 5,17 C 7.76,17 10,19.24 10,22 L 5,22 5,17 Z M 5,17" />
    <g id="badgerss-group2">
        <path id="badgerss-bezier4" stroke="rgb(255, 255, 255)" stroke-width="3" stroke-miterlimit="10" fill="none" d="M 4.75,12.5 C 10.13,12.5 14.5,16.87 14.5,22.25" />
        <path id="badgerss-bezier5" stroke="rgb(255, 255, 255)" stroke-width="3" stroke-miterlimit="10" fill="none" d="M 4.75,6.5 C 13.45,6.5 20.5,13.55 20.5,22.25" />
    </g>
</svg>
