<svg height="26" width="26" xmlns="http://www.w3.org/2000/svg" xmlns:xlink="http://www.w3.org/1999/xlink"><linearGradient id="a" gradientUnits="userSpaceOnUse" x1="0" x2="0" y1="0" y2="26"><stop offset="0" stop-color="#00ccbf"/><stop offset="1" stop-color="#00b265"/></linearGradient><linearGradient id="b" gradientUnits="userSpaceOnUse" x1="2" x2="2" y1="2" y2="24"><stop offset="0" stop-color="#151515"/><stop offset="1" stop-color="#353535"/></linearGradient><linearGradient id="c" gradientUnits="userSpaceOnUse" x1="4.95" x2="4.95" y1="4.92" y2="19.46"><stop offset=".3" stop-color="#fff"/><stop offset="1" stop-color="#9cc0b7"/></linearGradient><path d="m9.21.5h7.57c2.51 0 3.77 0 5.11.42 1.49.54 2.64 1.7 3.18 3.18.43 1.35.43 2.6.43 5.11v7.57c0 2.51 0 3.77-.43 5.11-.54 1.49-1.7 2.64-3.18 3.18-1.34.43-2.6.43-5.11.43h-7.57c-2.51 0-3.76 0-5.11-.43-1.48-.54-2.64-1.69-3.18-3.18-.42-1.34-.42-2.6-.42-5.11v-7.57c0-2.51 0-3.76.42-5.11.54-1.48 1.7-2.64 3.18-3.18 1.35-.42 2.6-.42 5.11-.42zm0 0" fill="url(#a)" fill-rule="evenodd"/><circle cx="13" cy="13" fill="url(#b)" r="11"/><path d="m17.72 19.44-1.9-2.62c1.19-.88 1.97-2.28 1.97-3.87 0-2.64-2.15-4.79-4.8-4.79-2.64 0-4.79 2.15-4.79 4.79 0 1.59.78 3.01 1.98 3.88l-1.9 2.63c-2.01-1.46-3.33-3.83-3.33-6.51 0-4.44 3.6-8.03 8.04-8.03s8.04 3.59 8.04 8.03c0 2.67-1.31 5.03-3.31 6.49zm-4.71-8.43c1.07 0 1.93.87 1.93 1.93 0 1.07-.86 1.93-1.93 1.93s-1.93-.86-1.93-1.93c0-1.06.86-1.93 1.93-1.93zm0 0" fill="url(#c)" fill-rule="evenodd"/></svg>