<svg height="26" width="26" xmlns="http://www.w3.org/2000/svg" xmlns:xlink="http://www.w3.org/1999/xlink"><linearGradient id="a" gradientUnits="userSpaceOnUse" x1="13" x2="13" y1="-.08" y2="26.08"><stop offset="0" stop-color="#f93"/><stop offset="1" stop-color="#ff7833"/></linearGradient><path d="m25.01 22.17c-.25.62-.81 1.49-1.6 2.1-.46.35-1.01.69-1.76.91-.8.24-1.79.32-3.02.32h-11.26c-1.22 0-2.22-.08-3.02-.32-.75-.22-1.3-.56-1.76-.91-.79-.61-1.35-1.48-1.59-2.1-.49-1.25-.5-2.65-.5-3.54v-11.26c0-.89.01-2.29.5-3.53.24-.63.8-1.5 1.59-2.11.46-.35 1.01-.69 1.76-.91.8-.24 1.8-.32 3.02-.32h11.26c1.23 0 2.22.08 3.02.32.75.22 1.3.56 1.76.91.79.61 1.35 1.48 1.6 2.11.49 1.24.49 2.64.49 3.53v11.26c0 .89 0 2.29-.49 3.54zm0 0" fill="url(#a)" fill-rule="evenodd"/><path d="m5 17c2.76 0 5 2.24 5 5h-5zm0 0" fill="#fff"/><g fill="none" stroke="#fff" stroke-miterlimit="10" stroke-width="3"><path d="m4.75 12.5c5.38 0 9.75 4.37 9.75 9.75"/><path d="m4.75 6.5c8.7 0 15.75 7.05 15.75 15.75"/></g></svg>